<?xml version="1.0" standalone="no"?>
<!DOCTYPE svg PUBLIC "-//W3C//DTD SVG 1.1//EN" "http://www.w3.org/Graphics/SVG/1.1/DTD/svg11.dtd" >
<svg xmlns="http://www.w3.org/2000/svg">
<metadata>Generated by IcoMoon</metadata>
<defs>
<font id="icomoon" horiz-adv-x="1024">
<font-face units-per-em="1024" ascent="960" descent="-64" />
<missing-glyph horiz-adv-x="1024" />
<glyph unicode="&#x20;" horiz-adv-x="512" d="" />
<glyph unicode="&#xe900;" glyph-name="Agreement" d="M830.12 960h-632.52c-59.36 0-110.76-51.4-110.76-110.76v-802.48c0-0.059 0-0.13 0-0.2 0-61.061 49.499-110.56 110.56-110.56 0.070 0 0.141 0 0.211 0h628.589c0.059 0 0.13 0 0.2 0 61.061 0 110.56 49.499 110.56 110.56 0 0.070 0 0.141 0 0.211v-0.011 802.64c3.76 59.2-47.64 110.6-106.84 110.6zM660 865.16c5.581 5.51 13.253 8.913 21.72 8.913s16.139-3.403 21.723-8.917l-0.003 0.003 43.44-39.52c12-12 12-31.56 0-39.52l-67.2-63.28-82.92 82.96zM577.040 782.2l82.96-82.96-249-249-83 82.96zM304.28 513.36l82.96-82.96-110.6-23.72zM770.76 62.68h-513.96c-0.758-0.102-1.635-0.16-2.525-0.16-11.046 0-20 8.954-20 20s8.954 20 20 20c0.89 0 1.767-0.058 2.626-0.171l-0.101 0.011h513.96c0.384 0.028 0.832 0.044 1.284 0.044 10.361 0 18.76-8.399 18.76-18.76 0-0.452-0.016-0.9-0.047-1.344l0.003 0.060c0-8-8-20-20-20zM770.76 193.12h-513.96c-9.906 1.297-17.475 9.684-17.475 19.84s7.569 18.543 17.374 19.829l0.101 0.011h513.96c0.758 0.102 1.635 0.16 2.525 0.16 11.046 0 20-8.954 20-20s-8.954-20-20-20c-0.89 0-1.767 0.058-2.626 0.171l0.101-0.011zM770.76 319.64h-513.96c-0.758-0.102-1.635-0.16-2.525-0.16-11.046 0-20 8.954-20 20s8.954 20 20 20c0.89 0 1.767-0.058 2.626-0.171l-0.101 0.011h513.96c9.906-1.297 17.475-9.684 17.475-19.84s-7.569-18.543-17.374-19.829l-0.101-0.011z" />
<glyph unicode="&#xe901;" glyph-name="arrowRight" d="M708.267 463.36l-362.667 362.667c-3.596 2.855-8.201 4.581-13.209 4.581-11.782 0-21.333-9.551-21.333-21.333 0-5.061 1.763-9.711 4.708-13.369l-0.032 0.041 347.307-347.947-347.307-347.947c-3.831-3.857-6.199-9.172-6.199-15.040 0-11.789 9.557-21.345 21.345-21.345 5.921 0 11.279 2.411 15.145 6.304l362.668 362.668c3.902 3.867 6.318 9.229 6.318 15.154 0 6.134-2.589 11.663-6.733 15.555l-0.011 0.011z" />
<glyph unicode="&#xe902;" glyph-name="waitCharge" d="M482.993 229.968v-128.7c0-57.231 31.523-88.477 80.768-93.393 29.677-2.954 60.923 3.161 91.477 13.385 179.827 61.749 306.761 229.406 306.761 426.711 0 0.009 0 0.020 0 0.030 0 248.537-201.461 449.998-450 449.998s-450-201.461-450-450c0-193.154 122.839-362.932 302.423-425.239l15.138 43.615c-159.344 56.543-271.408 205.99-271.408 381.61 0 0.005 0 0.007 0 0.013 0 223.038 180.807 403.845 403.846 403.845s403.846-180.807 403.846-403.846c0-174.854-112.154-328.223-275.308-382.961-24.807-8.332-50.654-13.385-72.161-11.239-26.677 2.678-39.231 15.115-39.231 47.468v128.7h-46.154zM385.078 632.615v-138.461h46.154v138.461zM592.768 632.615v-138.461h46.154v138.461zM685.077 465.908h-335.169v-95.492c0.092-52.75 42.869-95.479 95.63-95.492h143.978c52.748 0.013 95.509 42.75 95.562 95.487v95.498zM731.231 370.415c-0.053-78.24-63.491-141.646-141.739-141.646 0 0 0 0 0 0h-144c-78.233 0.039-141.646 63.422-141.739 141.638v141.655h427.477v-141.646z" />
<glyph unicode="&#xe903;" glyph-name="chargingPile" d="M921.8 701.8c-25.6 23-69.1 61.4-81.9 75.5-7.7 7.7-24.3 11.5-35.8 0s-6.4-26.9 1.3-34.6c11.5-11.5 37.1-33.3 51.2-49.9-12.8-15.4-32-12.8-44.8-26.9-1.3-1.3-1.3-3.8-1.3-5.1v-16.6c0-2.6 3.8-3.8 5.1-3.8 12.8 0 67.8 10.2 80.6 10.2 3.8 0 0-37.1 0-37.1v-430.1c0-23-24.3-19.2-37.1-19.2-28.2 0-37.1 14.1-37.1 37.1v336.7c0 30.7 0 37.1-19.2 37.1h-93.4v225.3c0 30.7-25.6 56.3-56.3 56.3h-411c-30.7 0-56.3-25.6-56.3-56.3v-720.6h-39.7c-11.5 0-20.5-9-20.5-20.5 0-10.2 9-19.2 20.5-19.2h599c11.5 0 20.5 9 20.5 20.5s-9 20.5-20.5 20.5h-34.6v458.1h56.3c16.6 0 19.2-19.2 19.2-19.2v-317.4c0-83.2 66.6-74.2 74.2-74.2 10.2 0 74.2-14.1 74.2 69.1v481.3c0.2 0 0.2 10.2-12.6 23zM233.2 79.7v719.4c0 10.2 9 19.2 19.2 19.2h391.6c10.2 0 19.2-9 19.2-19.2v-719.4h-430zM560.8 726.1h-225.2c-10.2 0-19.2-9-19.2-19.2v-19.2c0-10.2 9-19.2 19.2-19.2h225.3c10.2 0 19.2 9 19.2 19.2v19.2c-1.3 10.3-9 19.2-19.3 19.2zM424.5 429.2l69.8 120.5c6.3 10.8 3 24.7-7.6 31.5-5 3.1-11.1 4-16.8 2.5s-10.6-5.3-13.5-10.4l-89.9-155.2c-4.1-7.1-4.2-15.9-0.2-23.1 3.8-7.1 11.2-11.6 19.3-11.7h84l-74-153.3c-5.5-11.3-1.1-24.8 9.9-30.7 5.3-2.7 11.4-3.1 17-1.1 5.6 1.9 10.1 6.1 12.6 11.4l89.9 186.4c3.4 7.2 3 15.5-1 22.4-3.9 6.7-11 10.8-18.7 10.9h-80.8z" />
<glyph unicode="&#xe904;" glyph-name="navigation" d="M894.185 831.976l-764.371-317.72 316.185-132 125.861-316.185z" />
<glyph unicode="&#xe905;" glyph-name="address" d="M511.999 894.71c-173.639 0-314.904-138.295-314.904-308.281 0-77.603 31.021-185.006 85.106-294.67 53.746-108.972 124.853-209.288 195.185-275.378 8.956-9.603 21.511-15.089 34.612-15.089 12.913 0 25.36 5.358 34.296 14.737 149.549 140.015 280.609 406.359 280.609 570.401 0 169.985-141.266 308.28-314.905 308.28zM517.468 45.872l-1.129-1.139c-0.817-0.891-2.233-1.952-4.34-1.952-2.245 0-3.695 1.252-4.361 1.997l-1.294 1.327c-140.136 131.315-267.758 388.853-267.758 540.322 0 147.109 122.652 266.791 273.414 266.791s273.415-119.682 273.415-266.791c0-151.911-127.714-409.558-267.947-540.555zM513.045 778.384c-91.092 0-165.199-74.113-165.199-165.211 0-91.076 74.108-165.173 165.199-165.173 91.083 0 165.184 74.097 165.184 165.173 0 91.098-74.101 165.211-165.184 165.211zM513.045 489.49c-68.214 0-123.71 55.485-123.71 123.683 0 68.22 55.496 123.721 123.71 123.721 68.205 0 123.694-55.501 123.694-123.721 0-68.198-55.489-123.683-123.694-123.683z" />
<glyph unicode="&#xe906;" glyph-name="order" d="M768-64h-512c-83.2 0-147.2 70.4-147.2 153.6v652.8c0 83.2 64 153.6 147.2 153.6h32c12.8 0 19.2-6.4 19.2-19.2s-12.8-19.2-19.2-19.2h-32c-57.6 0-108.8-51.2-108.8-115.2v-659.2c0-64 51.2-115.2 108.8-115.2h512c57.6 0 108.8 51.2 108.8 115.2v659.2c0 64-51.2 115.2-108.8 115.2h-38.4c-12.8 0-19.2 6.4-19.2 19.2s12.8 19.2 19.2 19.2h38.4c83.2 0 147.2-70.4 147.2-153.6v-659.2c0-76.8-64-147.2-147.2-147.2zM640 793.6h-256c-25.6 0-51.2 25.6-51.2 51.2v64c0 25.6 25.6 51.2 51.2 51.2h256c25.6 0 51.2-25.6 51.2-51.2v-64c0-25.6-25.6-51.2-51.2-51.2zM384 921.6c-6.4 0-12.8-6.4-12.8-12.8v-64c0-6.4 6.4-12.8 12.8-12.8h256c6.4 0 12.8 6.4 12.8 12.8v64c0 6.4-6.4 12.8-12.8 12.8h-256zM736 556.8h-448c-12.8 0-19.2 6.4-19.2 19.2s6.4 19.2 19.2 19.2h448c12.8 0 19.2-6.4 19.2-19.2s-6.4-19.2-19.2-19.2zM736 396.8h-448c-12.8 0-19.2 6.4-19.2 19.2s6.4 19.2 19.2 19.2h448c12.8 0 19.2-6.4 19.2-19.2s-6.4-19.2-19.2-19.2zM544 236.8h-256c-12.8 0-19.2 6.4-19.2 19.2s6.4 19.2 19.2 19.2h256c12.8 0 19.2-6.4 19.2-19.2s-6.4-19.2-19.2-19.2z" />
<glyph unicode="&#xe907;" glyph-name="message" d="M921.9 491.4h-172.3c-9.4 0-18.4-3.8-25-10.5s-10.3-15.7-10.3-25.1v-11.1c0-19.6 15.9-35.5 35.4-35.5h172.2c19.5 0 35.3 15.9 35.3 35.5v11.1c0 9.4-3.7 18.4-10.3 25.1s-15.6 10.5-25 10.5zM522.4 796.1c-53.6-42.6-165.7-102.3-246.3-159.8h-0.1c-0.9-0.6-1.8-3.8-2.8-4.3-9.5-5.4-13.8-20.1-65.6-20.1h-101c-26 0-42-12.2-42-39.6v-243.3c0-27.4 14.7-40.9 42-40.9h101.4c51.5-0.1 55.7-14.8 65.2-20.1 0.9-0.5 1.8-3.7 2.7-4.3h0.1c78.2-57.5 191-121.8 246.4-162.7 16.7-12.3 72.1-33.9 72.1 42.1v614c0 76.1-55.9 51.8-72.1 39zM681.4 628.3c9.2-16.1 27.3-20.2 40.5-9l141.5 119.3c13.3 11.1 16.5 33.2 7.4 49.4l-5.2 9.1c-9.1 16.1-27.3 20.1-40.5 9l-141.5-119.3c-13.2-11.2-16.5-33.2-7.4-49.4l5.2-9.1zM721.8 280.9c-13.2 11.1-31.3 7-40.4-9l-5.2-9.1c-9.1-16.1-5.8-38.2 7.4-49.4l141.5-119.4c13.2-11.1 31.3-7.1 40.4 9l5.2 9.1c9.1 16.1 5.8 38.2-7.4 49.4l-141.5 119.4z" />
<glyph unicode="&#xe908;" glyph-name="arrowUp" d="M531.2 618.667l-360.533-362.667c-8.533-8.533-21.333-8.533-29.867 0s-8.533 21.333 0 29.867l362.667 362.667c8.533 8.533 21.333 8.533 29.867 0 6.4-8.533 6.4-21.333-2.133-29.867zM864 256l-362.667 362.667c-8.533 8.533-8.533 21.333 0 29.867s21.333 8.533 29.867 0l362.667-362.667c8.533-8.533 8.533-21.333 0-29.867-6.4-6.4-21.333-6.4-29.867 0z" />
<glyph unicode="&#xe909;" glyph-name="arrowDown" d="M503.467 288l362.667 362.667c8.533 8.533 21.333 8.533 29.867 0s8.533-21.333 0-29.867l-362.667-364.8c-8.533-8.533-21.333-8.533-29.867 0s-8.533 23.467 0 32zM170.667 648.533l362.667-362.667c8.533-8.533 8.533-21.333 0-29.867s-21.333-8.533-29.867 0l-362.667 362.667c-8.533 8.533-8.533 21.333 0 29.867 6.4 8.533 21.333 8.533 29.867 0z" />
<glyph unicode="&#xe90a;" glyph-name="arrowleft" d="M352 467.2l362.667-362.667c8.533-8.533 8.533-21.333 0-29.867s-21.333-8.533-29.867 0l-362.667 362.667c-8.533 8.533-8.533 21.333 0 29.867 6.4 8.533 21.333 8.533 29.867 0zM712.533 800l-362.667-362.667c-8.533-8.533-21.333-8.533-29.867 0s-8.533 21.333 0 29.867l362.667 362.667c8.533 8.533 21.333 8.533 29.867 0s8.533-21.333 0-29.867z" />
<glyph unicode="&#xe90b;" glyph-name="card" d="M972.8 535.752h-921.6v-386.084c0-37.612 30.218-65.188 65.475-65.188h788.131c37.776 0 67.994 27.658 67.994 62.761v388.51zM342.487 209.833h-177.040v75.203h177.035v-75.203zM51.2 613.468h921.6v132.874c0 37.607-30.218 65.178-65.475 65.178h-788.131c-37.776 0-67.994-30.080-67.994-65.178v-132.874z" />
<glyph unicode="&#xe90c;" glyph-name="clock" d="M897.665 740.544l31.428-40.027 15.22 19.47 15.171 19.47c33.652 43.041 25.894 105.256-16.9 138.71l-78.028 60.979c-42.992 33.553-105.206 25.746-138.661-17.147l-30.391-38.89 46.451-20.804 22.88 29.304c16.752 21.446 47.933 25.301 69.33 8.598l78.028-60.979c21.348-16.703 25.202-47.884 8.401-69.33l-22.929-29.353zM511.974 726.658v-296.1h-197.663v-49.613h247.079v49.613h-0.198v296.1zM298.152 921.949c-33.603 43.041-95.867 50.602-138.661 17.147l-78.077-60.979c-42.992-33.553-50.404-95.817-16.9-138.71l30.391-38.89 31.428 40.027-22.88 29.304c-16.752 21.446-12.996 52.628 8.401 69.33l78.028 60.979c21.348 16.703 52.529 12.848 69.33-8.598l22.88-29.304 46.451 20.804-15.22 19.42-15.171 19.47zM67.232 430.163c0-149.285 73.531-281.374 186.396-362.070l-98.090-97.646 34.591-34.443 105.799 105.354c63.944-35.629 137.623-55.939 216.046-55.939 76.842 0 149.087 19.47 212.142 53.764l103.625-103.18 34.591 34.443-95.57 95.175c114.842 80.4 189.954 213.723 189.954 364.54 0 245.646-199.096 444.742-444.742 444.742-245.597 0-444.742-199.146-444.742-444.742zM907.301 430.163c0-218.319-177.007-395.326-395.326-395.326s-395.326 177.007-395.326 395.326c0 218.319 177.007 395.326 395.326 395.326s395.326-177.007 395.326-395.326z" />
<glyph unicode="&#xe90d;" glyph-name="wallet" d="M941.787 730.209c0 72.494-62.138 134.632-134.632 134.632h-574.775c-72.494 0-134.632-62.138-134.632-134.632v-572.186c0-72.494 62.138-134.632 134.632-134.632h572.186c72.494 0 134.632 62.138 134.632 134.632v142.399h-302.922c0 2.589-116.508-7.767-116.508 137.221 0 155.345 126.865 144.988 126.865 144.988h295.155v147.577zM574.138 440.233c0-100.974 90.618-90.618 90.618-90.618h266.675v194.181h-258.908c0-2.589-98.385 5.178-98.385-103.563zM675.112 484.247c18.124 0 33.658-15.534 33.658-33.658 0-12.945-7.767-23.302-18.124-31.069-10.356-5.178-23.302-5.178-33.658 0s-18.124 18.124-18.124 31.069c2.589 18.124 18.124 33.658 36.247 33.658z" />
<glyph unicode="&#xe90e;" glyph-name="sweepCode" d="M108.268 747.812c0 55.613 45.082 100.695 100.695 100.695h182.461v43.996h-192.681c-74.138 0-134.246-60.104-134.246-134.252v-193.946h43.766v183.506h0.005zM913.838 747.812v-183.501h45.655v193.946c0 74.143-60.104 134.252-134.246 134.252h-195.62v-43.996h183.511c55.619-0.005 100.7-45.092 100.7-100.7v0zM108.989 142.1v183.506h-43.766v-193.951c0-74.138 60.104-134.246 134.252-134.246h192.676v44.001h-182.461c-55.619 0-100.7 45.082-100.7 100.69v0zM914.565 142.1c0-55.608-45.087-100.69-100.695-100.69h-183.506v-44.001h195.61c74.143 0 134.252 60.104 134.252 134.246v193.951h-45.66v-183.506zM964.797 461.916h-905.595c-13.271 0-24.028-10.762-24.028-24.028 0-13.276 10.762-24.033 24.028-24.033h905.595c13.271 0 24.028 10.762 24.028 24.033 0 13.266-10.762 24.028-24.028 24.028v0z" />
<glyph unicode="&#xe910;" glyph-name="like" d="M217.979-9.667c-10.721 0-20.244 4.28-26.808 12.063-5.458 6.472-11.274 18.196-8.008 37.396l43.213 253.686c2.652 15.575-5.243 39.793-16.579 50.811l-184.474 179.425c-13.496 13.128-18.616 28.764-14.039 42.895s17.889 23.808 36.516 26.542l254.628 37.294c15.636 2.294 36.229 17.285 43.203 31.468l113.633 230.892c8.315 16.906 21.617 26.604 36.495 26.604 14.848 0 28.15-9.667 36.485-26.522l114.145-230.636c7.025-14.162 27.648-29.112 43.284-31.365l254.71-36.71c18.637-2.683 31.969-12.329 36.577-26.45 4.608-14.131-0.481-29.778-13.947-42.936l-184.074-179.845c-11.305-11.039-19.149-35.277-16.456-50.862l43.786-253.594c3.318-19.21-2.488-30.956-7.936-37.437-11.305-13.435-31.191-15.923-51.057-5.519l-227.922 119.491c-13.332 7.004-40.141 6.963-53.453-0.061l-227.645-120.013c-8.346-4.393-16.517-6.615-24.279-6.615zM54.262 552.704l184.105-179.046c21.135-20.572 33.352-57.989 28.396-87.050l-43.121-253.164 227.174 119.757c25.047 13.199 66.478 13.23 91.576 0.102l227.441-119.245-43.715 253.061c-5.018 29.071 7.107 66.529 28.201 87.122l183.685 179.456-254.177 36.639c-29.184 4.209-61.051 27.31-74.138 53.74l-113.91 230.164-113.398-230.42c-13.015-26.45-44.831-49.633-74.015-53.914l-254.106-37.202z" />
<glyph unicode="&#xe911;" glyph-name="phone" d="M798.723 785.217c0 60.577-49.106 109.683-109.683 109.683h-354.709c-60.577 0-109.683-49.106-109.683-109.683v-673.98c0-60.577 49.106-109.683 109.683-109.683h354.709c60.577 0 109.683 49.106 109.683 109.683v673.98zM264.557 722.985h494.257v-529.049h-494.257v529.049zM334.356 854.991h354.661c38.549 0 69.799-31.25 69.799-69.799v-22.299h-494.257v22.299c-0.001 38.548 31.249 69.799 69.798 69.799zM689.017 41.463h-354.661c-38.549 0-69.799 31.25-69.799 69.799v43.788h494.257v-43.788c0-38.549-31.25-69.799-69.798-69.799zM513.174 130.057c-16.708 0-30.301-13.594-30.301-30.301s13.594-30.301 30.301-30.301 30.299 13.594 30.299 30.301c0 16.708-13.592 30.301-30.299 30.301z" />
<glyph unicode="&#xe912;" glyph-name="safe" d="M848.457 832c0 0-58.514 0-153.6 36.571-102.4 36.571-164.571 76.8-164.571 76.8l-29.257 14.629-25.6-14.629c0 0-65.829-40.229-164.571-76.8-98.743-32.914-153.6-36.571-153.6-36.571l-47.543-3.657v-504.686c0-186.514 347.429-387.657 391.314-387.657 40.229 0 391.314 201.143 391.314 387.657v504.686l-43.886 3.657zM475.429 250.514l-182.857 168.229 54.857 69.486 117.029-106.057 219.429 274.286 65.829-62.171-274.286-343.771z" />
<glyph unicode="&#xe913;" glyph-name="agreement" d="M830.12 960h-632.52c-59.36 0-110.76-51.4-110.76-110.76v-802.48c0-0.059 0-0.13 0-0.2 0-61.061 49.499-110.56 110.56-110.56 0.070 0 0.141 0 0.211 0h628.589c0.059 0 0.13 0 0.2 0 61.061 0 110.56 49.499 110.56 110.56 0 0.070 0 0.141 0 0.211v-0.011 802.64c3.76 59.2-47.64 110.6-106.84 110.6zM660 865.16c5.581 5.51 13.253 8.913 21.72 8.913s16.139-3.403 21.723-8.917l-0.003 0.003 43.44-39.52c12-12 12-31.56 0-39.52l-67.2-63.28-82.92 82.96zM577.040 782.2l82.96-82.96-249-249-83 82.96zM304.28 513.36l82.96-82.96-110.6-23.72zM770.76 62.68h-513.96c-0.758-0.102-1.635-0.16-2.525-0.16-11.046 0-20 8.954-20 20s8.954 20 20 20c0.89 0 1.767-0.058 2.626-0.171l-0.101 0.011h513.96c0.384 0.028 0.832 0.044 1.284 0.044 10.361 0 18.76-8.399 18.76-18.76 0-0.452-0.016-0.9-0.047-1.344l0.003 0.060c0-8-8-20-20-20zM770.76 193.12h-513.96c-9.906 1.297-17.475 9.684-17.475 19.84s7.569 18.543 17.374 19.829l0.101 0.011h513.96c0.758 0.102 1.635 0.16 2.525 0.16 11.046 0 20-8.954 20-20s-8.954-20-20-20c-0.89 0-1.767 0.058-2.626 0.171l0.101-0.011zM770.76 319.64h-513.96c-0.758-0.102-1.635-0.16-2.525-0.16-11.046 0-20 8.954-20 20s8.954 20 20 20c0.89 0 1.767-0.058 2.626-0.171l-0.101 0.011h513.96c9.906-1.297 17.475-9.684 17.475-19.84s-7.569-18.543-17.374-19.829l-0.101-0.011z" />
<glyph unicode="&#xe914;" glyph-name="problem" d="M512 896.4c-247.7 0-448.4-200.7-448.4-448.4s200.8-448.4 448.4-448.4 448.4 200.7 448.4 448.4-200.7 448.4-448.4 448.4zM512 40c-225.4 0-408.1 182.7-408.1 408 0 225.4 182.7 408 408.1 408s408.1-182.7 408.1-408c0-225.4-182.7-408-408.1-408zM645.8 709.6c30.4-28.7 45.6-67.5 45.6-116.5 0-35.4-11-67.5-31.2-95.4-10.1-11.8-32.1-32.9-66.7-65-20.3-16.9-34.6-32.9-43-48.1-11.8-19.4-17.7-41.4-17.7-65v-24.5h-51.5v24.5c0 24.5 5.1 47.3 15.2 67.5 11.8 25.3 37.1 56.5 77.6 92 19.4 18.6 32.9 32.1 39.7 40.5 16.9 22.8 26.2 46.4 26.2 71.7 0 36.3-11 65-31.2 86.1-21.9 21.9-53.2 32.1-92.8 32.1-44.7 0-78.5-14.3-101.3-44.7-20.3-26.2-30.4-61.6-31.2-105.5h-50.6c0.8 57.4 16.9 103 47.3 138.4 32.9 38.8 79.3 57.4 138.4 57.4 53.7 0.1 95.9-15.1 127.2-45.5zM537.7 213.4c8.4-7.6 12.7-17.7 12.7-30.4 0-11.8-4.2-21.9-12.7-30.4-8.4-7.6-18.6-11.8-30.4-11.8s-21.9 4.2-29.5 12.7c-9.3 8.4-13.5 17.7-13.5 29.5 0 12.7 4.2 22.8 13.5 30.4 7.6 8.4 17.7 11.8 29.5 11.8 11.9 0 22-3.4 30.4-11.8z" />
<glyph unicode="&#xe915;" glyph-name="group" d="M1024 436.736v-256h-58.368c-8.704 24.064-19.456 43.52-31.744 59.904-45.056 58.88-122.368 74.752-190.464 89.088-27.136 5.632-53.248 10.752-73.216 18.432-8.704 3.072-14.848 6.144-18.944 8.704 21.504 23.552 39.936 52.224 53.76 84.992 16.896 39.936 25.6 83.456 25.6 125.44 0 64.512-4.096 138.24-33.792 197.632-13.312 26.112-33.792 54.784-67.072 75.776 15.872 56.832 51.712 94.208 128 94.208 119.808 0 138.24-97.28 138.24-214.016 0-61.44-27.136-124.416-67.584-159.744-4.096-3.584-6.144-8.704-6.144-14.336 0-14.336 0.512-33.792 5.632-40.96 34.304-45.568 126.464-46.592 196.096-69.12zM87.552 238.592c43.52 62.464 123.392 78.336 193.536 92.16 27.648 5.632 53.248 10.752 73.728 17.92 8.704 3.072 14.336 5.632 18.432 8.192-21.504 23.552-39.424 52.224-53.248 83.968-16.896 39.424-26.112 82.432-26.624 123.392-0.512 54.784 2.56 96.256 9.728 131.584 10.24 50.688 29.184 89.6 58.368 118.784 9.728 9.728 20.48 18.432 31.744 25.6-15.872 56.832-51.2 94.72-125.952 94.72-122.88 0.512-140.288-97.792-139.264-215.552 0.512-59.904 28.16-122.88 68.096-158.208 4.096-3.584 6.144-8.704 6.144-14.336 0-14.336-1.024-33.28-6.144-40.448-33.28-45.056-125.952-46.080-196.096-68.096v-257.536h58.368c8.192 23.040 17.92 41.984 29.184 57.856zM935.424-16.896c0.512-12.288-9.216-23.040-21.504-23.040h-802.816c-12.288 0-22.016 10.24-21.504 23.040 3.072 49.152 13.312 164.352 50.176 217.088 56.32 80.384 242.176 52.736 294.4 124.416 6.144 7.68 6.656 29.184 6.656 45.056 0 6.144-2.56 11.776-7.168 16.384-44.544 39.936-74.752 110.080-75.264 177.664-1.536 132.096 17.92 242.176 155.136 242.176 133.12 0 153.088-108.544 153.088-240.128 0-69.12-30.208-139.264-74.752-179.2-4.096-4.096-7.168-10.24-7.168-15.872-0.512-16.384 0.512-37.888 6.144-46.080 52.736-71.68 232.96-46.080 292.864-124.416 38.912-51.712 49.152-167.424 51.712-217.088z" />
<glyph unicode="&#xe916;" glyph-name="coupon" d="M139.264 83.456c-36.864 0-67.072 30.208-67.072 67.072v148.992c0 8.704 2.048 30.208 22.016 43.008 19.968 6.656 77.312 27.136 77.312 106.496 0 62.976-55.296 95.232-78.848 106.496-18.432 10.24-20.48 19.968-20.48 43.008v148.992c0 36.864 30.208 67.072 67.072 67.072h745.984c36.864 0 67.072-30.208 67.072-67.072v-148.992c0-19.456 0-29.184-20.992-43.008-59.392-31.744-78.336-57.856-78.336-105.984s20.48-76.288 78.336-105.984c16.896-12.8 21.504-19.456 21.504-43.008v-148.992c0-36.864-30.208-67.072-67.072-67.072h-746.496zM163.84 779.776c-31.744 0-57.344-25.6-57.344-57.344v-138.752l5.12-2.048c56.32-19.968 94.208-73.216 94.208-132.608s-37.888-112.64-94.208-132.608l-5.12-2.048v-138.752c0-31.744 25.6-57.344 57.344-57.344h696.32c31.744 0 57.344 25.6 57.344 57.344v138.752l-5.12 2.048c-56.32 19.968-94.208 73.216-94.208 132.608s37.888 112.64 94.208 132.608l5.12 2.048v138.752c0 31.744-25.6 57.344-57.344 57.344h-696.32zM499.712 257.536c-0.006 0-0.012 0-0.019 0-2.534 0-4.589 2.055-4.589 4.589 0 0.007 0 0.013 0 0.020v-0.001 94.72h-119.808c-0.006 0-0.012 0-0.019 0-2.534 0-4.589 2.055-4.589 4.589 0 0.007 0 0.013 0 0.020v-0.001 25.088c0 0.006 0 0.012 0 0.019 0 2.534 2.055 4.589 4.589 4.589 0.007 0 0.013 0 0.020 0h119.807v65.536h-119.808c-0.006 0-0.012 0-0.019 0-2.534 0-4.589 2.055-4.589 4.589 0 0.007 0 0.013 0 0.020v-0.001 25.088c0 0.006 0 0.012 0 0.019 0 2.534 2.055 4.589 4.589 4.589 0.007 0 0.013 0 0.020 0h111.615l-114.176 122.88c-1.536 2.048-1.536 5.12 0 6.656l15.872 17.408c0.512 0.512 1.536 1.024 2.048 1.024 1.024 0 1.536-0.512 2.048-1.024l119.296-127.488 118.784 127.488c0.512 1.024 1.536 1.024 2.56 1.024s1.536-0.512 2.56-1.024l15.872-17.408c1.536-2.048 1.536-5.12 0-7.168l-113.664-122.368h111.616c0.006 0 0.012 0 0.019 0 2.534 0 4.589-2.055 4.589-4.589 0-0.007 0-0.013 0-0.020v0.001-25.088c0-0.006 0-0.012 0-0.019 0-2.534-2.055-4.589-4.589-4.589-0.007 0-0.013 0-0.020 0h-119.807v-65.024h119.808c0.006 0 0.012 0 0.019 0 2.534 0 4.589-2.055 4.589-4.589 0-0.007 0-0.013 0-0.020v0.001-25.088c0-0.006 0-0.012 0-0.019 0-2.534-2.055-4.589-4.589-4.589-0.007 0-0.013 0-0.020 0h-119.807v-94.72c0-0.006 0-0.012 0-0.019 0-2.534-2.055-4.589-4.589-4.589-0.007 0-0.013 0-0.020 0h-25.599z" />
<glyph unicode="&#xe917;" glyph-name="navi" d="M605.848 1.291c-0.362 0-0.725 0.008-1.089 0.027-9.098 0.469-16.872 6.713-19.288 15.496l-108.573 394.728-396.828 110.623c-8.761 2.443-14.976 10.219-15.427 19.305-0.451 9.084 4.965 17.437 13.442 20.734l851.166 331.067c7.809 3.038 16.67 1.175 22.598-4.75 5.923-5.924 7.788-14.79 4.751-22.598l-331.068-851.165c-3.17-8.15-11.013-13.468-19.683-13.468zM152.537 545.827l347.232-96.797c7.149-1.993 12.727-7.592 14.697-14.747l94.822-344.73 290.526 746.932-747.277-290.658z" />
<glyph unicode="&#xe918;" glyph-name="love" d="M781.186 343.968q17.339-80.574 30.598-145.849 6.12-27.538 11.219-55.076t9.689-49.976 7.649-38.247 4.080-19.888q3.060-20.398-9.179-27.028t-27.538-6.629q-5.1 0-14.789 3.57t-14.789 5.61l-266.199 155.028q-72.414-42.837-131.57-76.494-25.498-14.279-50.486-28.558t-45.386-26.518-35.187-20.398-19.888-10.199q-10.199-5.1-20.908-3.57t-19.378 7.649-12.749 14.789-2.040 17.849q1.020 4.080 5.1 19.888t9.179 37.737 11.729 48.446 13.769 54.056q15.299 63.235 34.677 142.789-60.175 52.016-108.112 92.813-20.398 17.339-40.287 34.167t-35.697 30.598-26.008 22.438-11.219 9.689q-12.239 11.219-20.908 24.988t-6.629 28.048 11.219 22.438 20.398 10.199l315.155 28.558 117.291 273.339q6.12 16.319 17.339 28.048t30.598 11.729q10.199 0 17.849-4.59t12.749-10.709 8.669-12.239 5.61-10.199l114.231-273.339 315.155-29.578q20.398-5.1 28.558-12.239t8.159-22.438q0-14.279-8.669-24.988t-21.928-26.008z" />
<glyph unicode="&#xe919;" glyph-name="car" d="M931.507 570.197l-83.968 212.309c-16.194 44.302-57.977 75.353-107.013 75.353-2.701 0-5.379-0.094-8.033-0.279l0.358 0.020h-441.685c-2.296 0.165-4.975 0.259-7.675 0.259-49.036 0-90.819-31.051-106.76-74.564l-0.253-0.789-83.968-212.309c-53.187-11.307-92.51-57.881-92.51-113.64 0-0.488 0.003-0.976 0.009-1.463l-0.001 0.074v-270.336h94.549v-68.267c0-106.155 128-105.131 128 0v68.267h580.267v-68.267c0-105.131 128-106.155 128 0v68.267h93.184v270.336c0.005 0.413 0.008 0.901 0.008 1.389 0 55.759-39.323 102.333-91.75 113.504l-0.76 0.136zM204.809 348.672c-0.101-0.001-0.221-0.001-0.341-0.001-40.342 0-73.045 32.704-73.045 73.045s32.704 73.045 73.045 73.045c40.342 0 73.045-32.703 73.045-73.045v0c0.001-0.101 0.001-0.221 0.001-0.341 0-40.153-32.551-72.704-72.704-72.704 0 0-0.001 0-0.001 0v0zM178.526 575.317l64.171 164.181c8.192 23.552 19.797 40.619 47.787 40.619h443.733c27.648 0 39.253-17.067 47.445-40.619l63.147-164.181zM819.209 348.672c-0.203-0.002-0.443-0.003-0.683-0.003-40.342 0-73.045 32.704-73.045 73.045s32.704 73.045 73.045 73.045c40.341 0 73.044-32.702 73.045-73.042v0c0.001-0.102 0.001-0.222 0.001-0.342 0-40.034-32.357-72.51-72.345-72.703h-0.018z" />
<glyph unicode="&#xe91a;" glyph-name="hand" d="M768.614 579.482c-39.117 0-71.066-31.949-71.066-71.066v82.944c0 39.117-31.949 71.066-71.066 71.066v0c-39.117 0-71.066-31.949-71.066-71.066v50.586c0 39.117-31.949 71.066-71.066 71.066v0c-39.117 0-71.066-31.949-71.066-71.066v210.125c0 39.117-31.949 71.066-71.066 71.066s-71.066-31.949-71.066-71.066v-508.109l-83.968 83.968c-28.672 28.672-75.571 28.672-104.243 0s-28.672-75.571 0-104.243l232.448-232.448c54.067-66.765 137.011-109.568 229.786-109.568 158.106 0 287.334 123.904 294.707 279.552h0.41v247.398c-0.614 38.707-32.563 70.861-71.68 70.861z" />
</font>
</defs>
</svg>
